<svg width="204" height="52" viewBox="0 0 204 52" fill="none" xmlns="http://www.w3.org/2000/svg">
<path d="M73.0767 41L64.7528 11.9091H71.4716L76.2869 32.1222H76.5284L81.8409 11.9091H87.5938L92.892 32.1648H93.1477L97.9631 11.9091H104.682L96.358 41H90.3636L84.8239 21.9801H84.5966L79.071 41H73.0767ZM115.46 41.4261C113.215 41.4261 111.283 40.9716 109.664 40.0625C108.054 39.1439 106.814 37.8466 105.942 36.1705C105.071 34.4848 104.636 32.4915 104.636 30.1903C104.636 27.946 105.071 25.9763 105.942 24.2812C106.814 22.5862 108.04 21.2652 109.621 20.3182C111.212 19.3712 113.078 18.8977 115.218 18.8977C116.657 18.8977 117.997 19.1297 119.238 19.5938C120.488 20.0483 121.577 20.7348 122.505 21.6534C123.442 22.572 124.172 23.7273 124.692 25.1193C125.213 26.5019 125.474 28.1212 125.474 29.9773V31.6392H107.05V27.8892H119.778C119.778 27.018 119.588 26.2462 119.21 25.5739C118.831 24.9015 118.305 24.3759 117.633 23.9972C116.97 23.6089 116.198 23.4148 115.317 23.4148C114.399 23.4148 113.585 23.6278 112.874 24.054C112.174 24.4706 111.624 25.0341 111.227 25.7443C110.829 26.4451 110.625 27.2263 110.616 28.0881V31.6534C110.616 32.733 110.815 33.6657 111.212 34.4517C111.62 35.2377 112.192 35.8438 112.931 36.2699C113.67 36.696 114.546 36.9091 115.559 36.9091C116.231 36.9091 116.847 36.8144 117.406 36.625C117.964 36.4356 118.442 36.1515 118.84 35.7727C119.238 35.3939 119.541 34.9299 119.749 34.3807L125.346 34.75C125.062 36.0947 124.479 37.2689 123.599 38.2727C122.728 39.267 121.601 40.0436 120.218 40.6023C118.845 41.1515 117.259 41.4261 115.46 41.4261ZM132.761 11.9091L139.792 34.0114H140.062L147.107 11.9091H153.925L143.897 41H135.971L125.928 11.9091H132.761ZM158.574 41H151.983L162.026 11.9091H169.952L179.98 41H173.389L166.102 18.5568H165.875L158.574 41ZM158.162 29.5653H173.73V34.3665H158.162V29.5653ZM183.482 41V11.9091H189.632V35.929H202.104V41H183.482Z" fill="white"/>
<g clipPath="url(#clip0_381_1548)">
<path d="M37.5769 29.9409H36.3315C36.2245 29.9409 36.1302 30.0101 36.0925 30.1107L35.1301 33.1173L34.218 30.117C34.1866 30.0101 34.0922 29.9409 33.979 29.9409H32.6455C32.5386 29.9409 32.4442 30.0101 32.4065 30.1107L31.4441 33.0733L30.5383 30.1107C30.5069 30.0038 30.4125 29.9346 30.2993 29.9346H28.9092C28.7394 29.9346 28.6199 30.0981 28.6702 30.2617L30.2804 35.2874C30.3119 35.3881 30.4062 35.4573 30.5195 35.4573H32.1486C32.2555 35.4573 32.3499 35.3881 32.3876 35.2811L33.2745 32.5009L34.1111 35.2748C34.1425 35.3818 34.2369 35.451 34.3501 35.451H35.9792C36.0862 35.451 36.1805 35.3818 36.2183 35.2811L37.8285 30.2554C37.8663 30.1044 37.7467 29.9409 37.5769 29.9409Z" fill="white"/>
<path d="M38.8161 41.0428C39.0865 41.3195 39.4388 41.4579 39.7973 41.4579C40.1433 41.4579 40.4892 41.3258 40.7597 41.0679C44.842 37.0674 47.0875 31.7209 47.0875 26.0032C47.0875 25.2421 46.4711 24.632 45.7163 24.632H40.4766C40.6339 23.6256 40.3068 22.594 39.5646 21.8518L28.2865 10.5737C28.016 10.3032 27.7078 10.0893 27.3744 9.93207V7.71168C31.8215 8.03876 35.9478 9.94465 39.1054 13.1652C39.3759 13.4419 39.7281 13.5803 40.0867 13.5803C40.4326 13.5803 40.7786 13.4482 41.049 13.1903C41.59 12.662 41.5963 11.7876 41.0679 11.2467C37.0611 7.15815 31.7146 4.9126 25.9969 4.9126C25.2358 4.9126 24.6257 5.52902 24.6257 6.28383V9.93207C24.2923 10.0893 23.9778 10.3032 23.7136 10.5737L9.6616 24.6257H7.71168C8.03876 20.1786 9.94465 16.0523 13.1652 12.8947C13.7061 12.3663 13.7124 11.492 13.184 10.9511C12.6557 10.4101 11.7814 10.4038 11.2404 10.9322C7.15815 14.9327 4.9126 20.2855 4.9126 25.9969C4.9126 26.758 5.52902 27.3681 6.28383 27.3681H10.2277C10.2717 27.3681 10.3158 27.3681 10.3661 27.3619C10.385 27.3619 10.4101 27.3556 10.429 27.3556C10.4541 27.3493 10.4793 27.3493 10.4982 27.343C10.5233 27.3367 10.5422 27.3304 10.5674 27.3241C10.5862 27.3178 10.6051 27.3115 10.6303 27.3115C10.6554 27.3052 10.6743 27.299 10.6995 27.2864C10.7183 27.2801 10.7372 27.2738 10.7624 27.2612C10.7812 27.2549 10.8001 27.2423 10.8253 27.2361C10.8441 27.2235 10.8693 27.2172 10.8882 27.2046C10.907 27.192 10.9259 27.1857 10.9448 27.1732C10.9636 27.1606 10.9825 27.148 11.0077 27.1354C11.0265 27.1228 11.0454 27.1103 11.0643 27.0914C11.0832 27.0788 11.0957 27.0662 11.1146 27.0536C11.1461 27.0285 11.1775 26.997 11.209 26.9656L11.2152 26.9593L25.651 12.5173C25.7768 12.3915 25.9214 12.3726 25.9969 12.3726C26.0724 12.3726 26.2171 12.3915 26.3429 12.5173L37.6147 23.7891C37.8159 23.9904 37.7656 24.2105 37.7216 24.3237C37.6776 24.437 37.5518 24.6257 37.2687 24.6257H33.8784H29.9408C29.1797 24.6257 28.5695 25.2421 28.5695 25.9969C28.5695 26.7517 29.186 27.3681 29.9408 27.3681H33.8847H37.275H44.2947C43.9676 31.8152 42.0617 35.9415 38.8412 39.0991C38.294 39.6275 38.2814 40.5018 38.8161 41.0428Z" fill="white"/>
<path d="M12.8946 38.835C12.3663 38.294 11.492 38.2877 10.951 38.8161C10.4101 39.3445 10.4038 40.2188 10.9321 40.7597C14.9326 44.842 20.2792 47.0875 25.9969 47.0875C26.758 47.0875 27.3681 46.4711 27.3681 45.7163V39.1998H33.8783C34.6394 39.1998 35.2495 38.5834 35.2495 37.8286C35.2495 37.0738 34.6331 36.4573 33.8783 36.4573H16.0334C15.7629 36.4573 15.5428 36.2372 15.5428 35.9667V29.9408C15.5428 29.1797 14.9263 28.5696 14.1715 28.5696C13.4167 28.5696 12.8003 29.186 12.8003 29.9408V35.9667C12.8003 37.7531 14.2533 39.1998 16.0334 39.1998H24.6256V44.2885C20.1785 43.9614 16.0523 42.0555 12.8946 38.835Z" fill="white"/>
<path d="M9.9823 34.9478C9.68666 34.4257 9.42248 33.8847 9.18346 33.3312C8.88154 32.6456 8.62364 31.9348 8.41607 31.224C8.20221 30.4944 7.43482 30.0855 6.71146 30.2994C5.98181 30.5133 5.57296 31.2806 5.78682 32.004C6.03213 32.828 6.32777 33.6457 6.67372 34.432C6.95048 35.061 7.2587 35.6837 7.59836 36.2875C7.84996 36.7341 8.31543 36.992 8.79976 36.992C9.02621 36.992 9.25894 36.9354 9.46651 36.8159C10.1207 36.4448 10.3534 35.6082 9.9823 34.9478Z" fill="white"/>
<path d="M31.6139 46.2761C31.746 46.2761 31.8718 46.2572 32.0039 46.2195C32.8279 45.9742 33.6456 45.6786 34.4318 45.3326C35.0609 45.0558 35.6899 44.7476 36.2874 44.408C36.9479 44.0368 37.1869 43.2003 36.8158 42.5398C36.4447 41.8794 35.6081 41.6403 34.9476 42.0114C34.4256 42.3008 33.8846 42.5713 33.3311 42.8103C32.6455 43.1059 31.941 43.3701 31.2239 43.5777C30.4943 43.7915 30.0854 44.5589 30.2993 45.2823C30.4754 45.8861 31.0226 46.2761 31.6139 46.2761Z" fill="white"/>
<path d="M43.5839 20.7698C43.76 21.3674 44.3073 21.7511 44.8985 21.7511C45.0306 21.7511 45.1627 21.7322 45.2885 21.6945C46.0182 21.4806 46.427 20.7132 46.2132 19.9899C45.9678 19.1659 45.6722 18.3481 45.3263 17.5619C45.0495 16.9329 44.7413 16.3039 44.4016 15.7063C44.0305 15.0459 43.1939 14.8068 42.5335 15.1779C41.873 15.5491 41.634 16.3856 42.0051 17.0461C42.2944 17.5682 42.5649 18.1091 42.8039 18.6564C43.1122 19.3483 43.37 20.0528 43.5839 20.7698Z" fill="white"/>
<path d="M16.3794 10.1585C16.6058 10.1585 16.8385 10.1019 17.0461 9.98242C17.5682 9.68679 18.1091 9.4226 18.6626 9.18358C19.3483 8.88166 20.059 8.62376 20.7698 8.41619C21.4995 8.20233 21.9083 7.43494 21.6945 6.71158C21.4806 5.98194 20.7132 5.57308 19.9899 5.78694C19.1659 6.03226 18.3544 6.32789 17.5619 6.67384C16.9329 6.95061 16.3102 7.25882 15.7063 7.59848C15.0459 7.9696 14.8068 8.80618 15.1779 9.46663C15.4296 9.90694 15.9013 10.1585 16.3794 10.1585Z" fill="white"/>
<path d="M0.861746 32.6517C1.48446 35.0231 2.44055 37.2812 3.69857 39.3758C4.78675 41.1873 6.10766 42.8731 7.61099 44.3827C7.88146 44.6532 8.22742 44.7853 8.57966 44.7853C8.93191 44.7853 9.28415 44.6532 9.54833 44.3827C10.083 43.848 10.083 42.98 9.54833 42.4391C8.19597 41.0867 7.01972 39.5834 6.04476 37.9605C4.91884 36.0861 4.06968 34.067 3.50987 31.9472C2.99408 29.991 2.73619 27.9656 2.73619 25.9339C2.73619 25.1728 2.12605 24.5564 1.36495 24.5564C1.36495 24.5564 1.36495 24.5564 1.35866 24.5564C0.603854 24.5564 -0.0125732 25.1665 -0.0125732 25.9276C-0.00628317 28.1983 0.28306 30.4628 0.861746 32.6517Z" fill="white"/>
<path d="M48.8486 38.4134C49.2135 37.7467 48.9619 36.9164 48.3014 36.5516C47.6347 36.1867 46.8044 36.4383 46.4395 37.0988C45.3765 39.0487 44.0304 40.8477 42.4453 42.4328C40.8917 43.9864 39.1368 45.3073 37.2309 46.3578C35.608 47.251 33.872 47.9554 32.0793 48.4398C30.1231 48.9682 28.0977 49.2386 26.066 49.2449C26.0471 49.2449 26.0283 49.2449 26.0031 49.2449C23.9903 49.2449 21.99 48.987 20.0527 48.4712C19.3168 48.2762 18.5682 48.7165 18.3732 49.4462C18.1783 50.1821 18.6186 50.9306 19.3482 51.1256C21.5183 51.698 23.7513 51.9874 26.0031 51.9874C26.0283 51.9874 26.0471 51.9874 26.0723 51.9874C28.343 51.9811 30.6074 51.6792 32.7964 51.0879C34.8029 50.547 36.7465 49.767 38.5581 48.7606C40.6904 47.5843 42.6529 46.1062 44.389 44.3701C46.1565 42.6089 47.6598 40.6024 48.8486 38.4134Z" fill="white"/>
<path d="M51.1005 19.21C50.5596 17.2034 49.7796 15.2598 48.7732 13.4483C47.597 11.3159 46.1188 9.35344 44.3827 7.61738C42.6467 5.87503 40.6842 4.40316 38.5519 3.22691C37.8851 2.86209 37.0548 3.10111 36.6837 3.76786C36.3189 4.43461 36.5579 5.2649 37.2246 5.63601C39.1305 6.68645 40.8855 8.00737 42.4391 9.56101C43.9928 11.1147 45.3137 12.8696 46.3641 14.7755C47.2573 16.3983 47.9618 18.1344 48.4461 19.927C48.9745 21.8833 49.245 23.9087 49.2513 25.9404C49.2513 26.6952 49.8677 27.3116 50.6225 27.3116C50.6225 27.3116 50.6225 27.3116 50.6288 27.3116C51.3899 27.3116 52 26.6952 52 25.9341C51.9937 23.6571 51.6918 21.3989 51.1005 19.21Z" fill="white"/>
<path d="M3.78034 12.4857C3.38407 13.1336 3.59164 13.9765 4.23952 14.3727C4.45967 14.5111 4.71127 14.574 4.9503 14.574C5.41576 14.574 5.86865 14.3413 6.12654 13.9136C7.08263 12.3411 8.24 10.8755 9.55463 9.55456C11.1397 7.96946 12.9387 6.62338 14.8886 5.56036C16.5114 4.67346 18.2475 3.98785 20.0402 3.51609C21.9775 3.0066 23.984 2.74241 25.9969 2.74241C26.0157 2.74241 26.0409 2.74241 26.0598 2.74241C26.8146 2.74241 27.431 2.13228 27.431 1.37118C27.431 0.610079 26.8209 -0.00634766 26.0598 -0.00634766C23.7891 -0.00634766 21.5309 0.276705 19.3357 0.855392C17.3292 1.38376 15.3918 2.15744 13.574 3.14498C11.3913 4.3338 9.3848 5.83713 7.60471 7.61093C6.14541 9.0828 4.85595 10.7245 3.78034 12.4857Z" fill="white"/>
<path d="M1.97619 22.7895C2.74774 22.6642 3.27169 21.9373 3.14647 21.1657C3.02126 20.3942 2.29429 19.8702 1.52274 19.9954C0.751194 20.1207 0.227241 20.8476 0.352458 21.6192C0.477675 22.3907 1.20465 22.9147 1.97619 22.7895Z" fill="white"/>
<path d="M49.1129 35.4257C49.8945 35.4257 50.5282 34.7921 50.5282 34.0105C50.5282 33.2289 49.8945 32.5952 49.1129 32.5952C48.3313 32.5952 47.6976 33.2289 47.6976 34.0105C47.6976 34.7921 48.3313 35.4257 49.1129 35.4257Z" fill="white"/>
<path d="M51.7422 30.4062C51.7422 29.6263 51.1069 28.991 50.3269 28.991C49.5469 28.991 48.9116 29.6263 48.9116 30.4062C48.9116 31.1862 49.5469 31.8215 50.3269 31.8215C51.1069 31.8215 51.7422 31.1925 51.7422 30.4062Z" fill="white"/>
<path d="M2.87462 18.6816C3.65625 18.6816 4.28988 18.048 4.28988 17.2663C4.28988 16.4847 3.65625 15.8511 2.87462 15.8511C2.09299 15.8511 1.45935 16.4847 1.45935 17.2663C1.45935 18.048 2.09299 18.6816 2.87462 18.6816Z" fill="white"/>
</g>
<defs>
<clipPath id="clip0_381_1548">
<rect width="52" height="52" fill="white"/>
</clipPath>
</defs>
</svg>
