
<svg xmlns="http://www.w3.org/2000/svg" width="28" height="28" viewBox="0 0 28 28" fill="none">
  <path d="M20.9791 21.8457C20.1639 20.7664 19.1092 19.8911 17.8981 19.2888C16.6871 18.6865 15.3527 18.3737 14.0001 18.3749C12.6475 18.3737 11.3131 18.6865 10.1021 19.2888C8.89097 19.8911 7.83629 20.7664 7.0211 21.8457M20.9791 21.8457C22.5698 20.4308 23.6917 18.5657 24.1981 16.4978C24.7046 14.43 24.5704 12.257 23.8135 10.2671C23.0565 8.27725 21.7126 6.56447 19.9599 5.35595C18.2072 4.14742 16.1285 3.50024 13.9995 3.50024C11.8705 3.50024 9.79185 4.14742 8.03913 5.35595C6.28642 6.56447 4.94248 8.27725 4.18555 10.2671C3.42863 12.257 3.29447 14.43 3.80089 16.4978C4.3073 18.5657 5.43035 20.4308 7.0211 21.8457M20.9791 21.8457C19.0588 23.5586 16.5733 24.5036 14.0001 24.4999C11.4265 24.5038 8.94171 23.5589 7.0211 21.8457M17.5001 11.3749C17.5001 12.3032 17.1313 13.1934 16.475 13.8498C15.8186 14.5062 14.9284 14.8749 14.0001 14.8749C13.0718 14.8749 12.1816 14.5062 11.5252 13.8498C10.8688 13.1934 10.5001 12.3032 10.5001 11.3749C10.5001 10.4466 10.8688 9.5564 11.5252 8.90003C12.1816 8.24365 13.0718 7.8749 14.0001 7.8749C14.9284 7.8749 15.8186 8.24365 16.475 8.90003C17.1313 9.5564 17.5001 10.4466 17.5001 11.3749Z" stroke="white" stroke-width="1.5" stroke-linecap="round" stroke-linejoin="round"/>
</svg>